name GIL04_fast2.mot
datacolumns 153
datarows 4
range 0.34999990 0.37499991
endheader

                time	           pelvis_tx	           pelvis_ty	           pelvis_tz	         pelvis_tilt	         pelvis_list	     pelvis_rotation	       hip_flexion_r	     hip_adduction_r	      hip_rotation_r	        knee_angle_r	       ankle_angle_r	    subtalar_angle_r	         mtp_angle_r	       hip_flexion_l	     hip_adduction_l	      hip_rotation_l	        knee_angle_l	       ankle_angle_l	    subtalar_angle_l	         mtp_angle_l	    lumbar_extension	      lumbar_bending	     lumbar_rotation	     ground_force_vx	     ground_force_vy	     ground_force_vz	     ground_force_px	     ground_force_py	     ground_force_pz	     ground_force_vx	     ground_force_vy	     ground_force_vz	     ground_force_px	     ground_force_py	     ground_force_pz	     ground_torque_x	     ground_torque_y	     ground_torque_z	     ground_torque_x	     ground_torque_y	     ground_torque_z	    ground_marker_px	    ground_marker_py	    ground_marker_pz	    ground_marker_px	    ground_marker_py	    ground_marker_pz	    ground_marker_px	    ground_marker_py	    ground_marker_pz	    ground_marker_px	    ground_marker_py	    ground_marker_pz	    ground_marker_px	    ground_marker_py	    ground_marker_pz	    ground_marker_px	    ground_marker_py	    ground_marker_pz	    ground_marker_px	    ground_marker_py	    ground_marker_pz	    ground_marker_px	    ground_marker_py	    ground_marker_pz	    ground_marker_px	    ground_marker_py	    ground_marker_pz	    ground_marker_px	    ground_marker_py	    ground_marker_pz	    ground_marker_px	    ground_marker_py	    ground_marker_pz	    ground_marker_px	    ground_marker_py	    ground_marker_pz	    ground_marker_px	    ground_marker_py	    ground_marker_pz	    ground_marker_px	    ground_marker_py	    ground_marker_pz	    ground_marker_px	    ground_marker_py	    ground_marker_pz	    ground_marker_px	    ground_marker_py	    ground_marker_pz	    ground_marker_px	    ground_marker_py	    ground_marker_pz	    ground_marker_px	    ground_marker_py	    ground_marker_pz	    ground_marker_px	    ground_marker_py	    ground_marker_pz	    ground_marker_px	    ground_marker_py	    ground_marker_pz	    ground_marker_px	    ground_marker_py	    ground_marker_pz	    ground_marker_px	    ground_marker_py	    ground_marker_pz	    ground_marker_px	    ground_marker_py	    ground_marker_pz	    ground_marker_px	    ground_marker_py	    ground_marker_pz	    ground_marker_px	    ground_marker_py	    ground_marker_pz	    ground_marker_px	    ground_marker_py	    ground_marker_pz	    ground_marker_px	    ground_marker_py	    ground_marker_pz	    ground_marker_px	    ground_marker_py	    ground_marker_pz	    ground_marker_px	    ground_marker_py	    ground_marker_pz	    ground_marker_px	    ground_marker_py	    ground_marker_pz	    ground_marker_px	    ground_marker_py	    ground_marker_pz	    ground_marker_px	    ground_marker_py	    ground_marker_pz	    ground_marker_px	    ground_marker_py	    ground_marker_pz	    ground_marker_px	    ground_marker_py	    ground_marker_pz	    ground_marker_px	    ground_marker_py	    ground_marker_pz	    ground_marker_px	    ground_marker_py	    ground_marker_pz	    ground_marker_px	    ground_marker_py	    ground_marker_pz	
          0.34999990	          1.53202689	          0.75927031	         -0.15716566	         -2.44390297	         -0.78577513	         -1.92024946	         -6.07860231	          6.22493696	          5.08403015	         -4.06774950	          7.24688864	          0.00000000	          0.00000000	         31.72035217	         -2.72646761	         -8.32628727	        -30.96732330	         -2.86447001	          0.00000000	          0.00000000	        -12.00827789	          2.13261700	          4.49747181	          1.28167950	        196.32996116	         -3.26802123	          1.45427844	          0.00000000	         -0.13050464	          0.00000000	          0.00000000	          0.00000000	          1.89138574	          0.00000000	         -0.21032832	          0.00000000	          1.40567273	          0.00000000	          0.00000000	          0.00000000	          0.00000000	          1.47175765	          0.69046044	         -0.16101795	          1.46399069	          0.69765955	         -0.09485278	          1.46764350	          0.69493777	         -0.22059919	          1.41873384	          0.38841259	         -0.12352785	          1.62916291	          0.40729982	         -0.22538500	          1.34905636	          0.06431113	         -0.12772916	          1.62060738	          0.09185886	         -0.21474242	          1.53202689	          0.75927031	         -0.15716566	          1.52930689	          0.76129705	         -0.06353163	          1.53474689	          0.75724357	         -0.25079969	          1.38902354	          0.80028272	         -0.14707953	          1.38927209	          0.79137874	         -0.20134173	          1.42089760	          0.38344038	         -0.07331983	          1.62313414	          0.40473911	         -0.27495411	          1.41427553	          0.39403430	         -0.17154174	          1.63929200	          0.41278496	         -0.17899387	          1.34394872	          0.06498013	         -0.09462760	          1.60796857	          0.09111887	         -0.24683546	          1.34719849	          0.07483201	         -0.15514438	          1.61883426	          0.09850311	         -0.18559845	          1.44127190	          1.14662981	         -0.15647297	          1.52373064	          1.10257685	         -0.10041689	          1.51894248	          1.10677421	         -0.22586545	          1.51567984	          1.09265840	         -0.16595361	          1.54110360	          0.95138377	         -0.17085083	          1.43893349	          0.47000334	          0.01365976	          1.69258630	          0.56984967	         -0.27596086	          1.47507095	          0.53245783	         -0.04892258	          1.60495842	          0.58645058	         -0.20846839	          1.47469747	          0.45073649	         -0.07270278	          1.63984454	          0.50553799	         -0.20507759	          1.35295630	          0.16453376	         -0.01932014	          1.69723868	          0.18340616	         -0.27361071	          1.37146235	          0.22007248	         -0.07861175	          1.65018594	          0.24277359	         -0.24449171	          1.44241154	          0.03876361	         -0.12460911	          1.70458901	          0.06634007	         -0.22771332	
          0.35833323	          1.54226303	          0.75760508	         -0.15676072	         -2.34826660	         -0.72193456	         -2.38716555	         -7.62646341	          6.07198620	          5.41586065	         -3.02626276	          7.38914347	          0.00000000	          0.00000000	         31.89424896	         -2.82417059	         -9.94317245	        -27.49078178	         -2.85724115	          0.00000000	          0.00000000	        -12.06023121	          1.83686924	          5.43015862	          3.58860778	        206.04580865	         -3.60448234	          1.45440820	          0.00000000	         -0.13052252	          0.00000000	          0.00000000	          0.00000000	          1.89760181	          0.00000000	         -0.21047589	          0.00000000	          1.52375867	          0.00000000	          0.00000000	          0.00000000	          0.00000000	          1.48210716	          0.68873429	         -0.16103992	          1.47382939	          0.69593191	         -0.09494696	          1.47851431	          0.69309843	         -0.22065668	          1.42107487	          0.38831064	         -0.12315998	          1.64149833	          0.40617117	         -0.22439063	          1.34919286	          0.06467752	         -0.12813824	          1.65315259	          0.08951184	         -0.21674854	          1.54226303	          0.75760508	         -0.15676072	          1.53877211	          0.75971639	         -0.06309045	          1.54575396	          0.75549382	         -0.25043100	          1.39886093	          0.79849404	         -0.14780974	          1.39965498	          0.78940403	         -0.20198834	          1.42298305	          0.38337734	         -0.07293776	          1.63462794	          0.40291172	         -0.27380899	          1.41708815	          0.39405975	         -0.17154235	          1.66136086	          0.41256863	         -0.17790169	          1.34385991	          0.06535339	         -0.09507236	          1.64003348	          0.08825953	         -0.24863219	          1.34730554	          0.07530809	         -0.15566935	          1.65188885	          0.09580761	         -0.18732892	          1.45148551	          1.14473522	         -0.15658687	          1.53411269	          1.10073924	         -0.10066336	          1.52820134	          1.10468614	         -0.22626020	          1.52593577	          1.09076869	         -0.16602181	          1.55051780	          0.94936150	         -0.17101902	          1.44292665	          0.46958938	          0.01395745	          1.70201147	          0.56719971	         -0.27758670	          1.47951758	          0.53131044	         -0.04856847	          1.62507486	          0.58514935	         -0.21111105	          1.47825861	          0.44988152	         -0.07257597	          1.66014719	          0.50436425	         -0.20718777	          1.35304356	          0.16490045	         -0.01953785	          1.72245991	          0.18689170	         -0.27572590	          1.37214947	          0.22031762	         -0.07870471	          1.67196858	          0.24249204	         -0.24550189	          1.44233382	          0.03873603	         -0.12468541	          1.73852992	          0.06951973	         -0.23063704	
          0.36666659	          1.55260515	          0.75567997	         -0.15634231	         -2.24623203	         -0.67992824	         -2.89099860	         -9.14104080	          5.91720295	          5.71133327	         -2.07975125	          7.58204603	          0.00000000	          0.00000000	         31.98463821	         -2.94052052	        -11.59566879	        -23.98639679	         -2.88539839	          0.00000000	          0.00000000	        -12.12918282	          1.54343224	          6.35148430	          6.17374389	        218.03465815	         -4.19375265	          1.45458228	          0.00000000	         -0.13046313	          0.00000000	          0.00000000	          0.00000000	          1.90339551	          0.00000000	         -0.21082108	          0.00000000	          1.65126428	          0.00000000	          0.00000000	          0.00000000	          0.00000000	          1.49254084	          0.68673849	         -0.16102879	          1.48375225	          0.69396704	         -0.09503572	          1.48953640	          0.69095981	         -0.22069561	          1.42377198	          0.38811502	         -0.12277892	          1.65354002	          0.40462840	         -0.22324497	          1.34937012	          0.06504237	         -0.12843829	          1.68503833	          0.08806318	         -0.21894322	          1.55260515	          0.75567997	         -0.15634231	          1.54829299	          0.75792181	         -0.06266108	          1.55691731	          0.75343806	         -0.25002354	          1.40874672	          0.79644525	         -0.14862996	          1.41011190	          0.78714520	         -0.20272191	          1.42537260	          0.38324404	         -0.07253988	          1.64582551	          0.40064806	         -0.27248561	          1.42014015	          0.39379668	         -0.17122500	          1.67196834	          0.40976736	         -0.17737237	          1.34382772	          0.06574015	         -0.09540734	          1.67140925	          0.08627709	         -0.25058669	          1.34746325	          0.07576340	         -0.15591376	          1.68441224	          0.09420513	         -0.18949871	          1.46171045	          1.14249587	         -0.15670930	          1.54458702	          1.09866226	         -0.10085770	          1.53766334	          1.10228431	         -0.22625190	          1.53612351	          1.08856297	         -0.16610515	          1.56029475	          0.94708639	         -0.17087147	          1.44705927	          0.46907252	          0.01427518	          1.71131468	          0.56393749	         -0.27903977	          1.48413503	          0.53012061	         -0.04813400	          1.63517284	          0.58192778	         -0.21206249	          1.48197818	          0.44889548	         -0.07220148	          1.67032194	          0.50124449	         -0.20767619	          1.35331881	          0.16529191	         -0.01966566	          1.74667001	          0.19073792	         -0.27800992	          1.37306333	          0.22046451	         -0.07857354	          1.69315898	          0.24247330	         -0.24638587	          1.44227278	          0.03870360	         -0.12471466	          1.77140343	          0.07350932	         -0.23391528	
          0.37499991	          1.56298637	          0.75351417	         -0.15590420	         -2.14297199	         -0.66728687	         -3.41354680	        -10.60437965	          5.77268887	          5.97339106	         -1.24404645	          7.82188272	          0.00000000	          0.00000000	         32.01459885	         -3.07725787	        -13.16495419	        -20.50526619	         -2.93139648	          0.00000000	          0.00000000	        -12.30986404	          1.41856599	          7.04979229	          9.25698988	        231.93909435	         -4.99944157	          1.45477222	          0.00000000	         -0.13035992	          0.00000000	          0.00000000	          0.00000000	          1.90870850	          0.00000000	         -0.21130019	          0.00000000	          1.78778479	          0.00000000	          0.00000000	          0.00000000	          0.00000000	          1.50297093	          0.68448293	         -0.16098551	          1.49370825	          0.69179285	         -0.09508716	          1.50061584	          0.68854374	         -0.22068428	          1.42683899	          0.38783079	         -0.12238389	          1.66531181	          0.40269318	         -0.22197425	          1.34959149	          0.06541855	         -0.12863070	          1.71604478	          0.08749599	         -0.22126257	          1.56298637	          0.75351417	         -0.15590420	          1.55783510	          0.75593722	         -0.06224109	          1.56813765	          0.75109112	         -0.24956731	          1.41868222	          0.79414999	         -0.14954612	          1.42064095	          0.78461236	         -0.20354886	          1.42809856	          0.38304049	         -0.07212739	          1.65681970	          0.39802176	         -0.27102587	          1.42344356	          0.39402369	         -0.17118077	          1.68241715	          0.40651563	         -0.17672095	          1.34385622	          0.06615338	         -0.09563350	          1.70191336	          0.08515058	         -0.25264809	          1.34771013	          0.07618805	         -0.15604062	          1.71630728	          0.09355940	         -0.19190149	          1.47204232	          1.14004564	         -0.15687068	          1.55514288	          1.09630001	         -0.10099450	          1.54781199	          1.09979379	         -0.22615457	          1.54628801	          1.08606970	         -0.16620675	          1.57070184	          0.94466305	         -0.17081000	          1.45137358	          0.46846512	          0.01461014	          1.72061086	          0.56024820	         -0.28013977	          1.48937213	          0.52858812	         -0.04739025	          1.64509463	          0.57821202	         -0.21283025	          1.48595929	          0.44781819	         -0.07173517	          1.68033695	          0.49772292	         -0.20796007	          1.35379231	          0.16571860	         -0.01970703	          1.76982486	          0.19487408	         -0.28035209	          1.37406564	          0.22054163	         -0.07824771	          1.71377349	          0.24265034	         -0.24713859	          1.44223380	          0.03866944	         -0.12469887	          1.80303538	          0.07824815	         -0.23745827	
